<svg xmlns="http://www.w3.org/2000/svg" width="23" height="21" viewBox="0 0 23 21"><defs><clipPath id="enuqa"><path fill="#fff" d="M0 0h23v21H0z"/></clipPath><clipPath id="enuqb"><path fill="#fff" d="M6 5h4v4H6z"/></clipPath><clipPath id="enuqc"><path fill="#fff" d="M6 12h4v4H6z"/></clipPath><clipPath id="enuqd"><path fill="#fff" d="M13 5h4v4h-4z"/></clipPath><clipPath id="enuqe"><path fill="#fff" d="M13 12h4v4h-4z"/></clipPath></defs><g><g><g><path fill="none" stroke="#2f3035" stroke-miterlimit="20" stroke-width="4" d="M0 0v0h23v21H0v0z" clip-path="url(&quot;#enuqa&quot;)"/></g><g><g><path fill="#2f3035" d="M6 5h4v4H6z"/><path fill="none" stroke="#2f3035" stroke-miterlimit="20" stroke-width="4" d="M6 5v0h4v4H6v0z" clip-path="url(&quot;#enuqb&quot;)"/></g><g><path fill="#2f3035" d="M6 12h4v4H6z"/><path fill="none" stroke="#2f3035" stroke-miterlimit="20" stroke-width="4" d="M6 12v0h4v4H6v0z" clip-path="url(&quot;#enuqc&quot;)"/></g><g><path fill="#2f3035" d="M13 5h4v4h-4z"/><path fill="none" stroke="#2f3035" stroke-miterlimit="20" stroke-width="4" d="M13 5v0h4v4h-4v0z" clip-path="url(&quot;#enuqd&quot;)"/></g><g><path fill="#2f3035" d="M13 12h4v4h-4z"/><path fill="none" stroke="#2f3035" stroke-miterlimit="20" stroke-width="4" d="M13 12v0h4v4h-4v0z" clip-path="url(&quot;#enuqe&quot;)"/></g></g></g></g></svg>