<svg xmlns="http://www.w3.org/2000/svg" width="25" height="19" viewBox="0 0 25 19"><g><g opacity=".3"><g opacity=".3"><g opacity=".3"><path fill="#2f3035" d="M6 1.5A1.5 1.5 0 0 1 7.5 0h16a1.5 1.5 0 0 1 0 3h-16A1.5 1.5 0 0 1 6 1.5z"/></g><g opacity=".3"><path fill="#2f3035" d="M6 9.5A1.5 1.5 0 0 1 7.5 8h16a1.5 1.5 0 0 1 0 3h-16A1.5 1.5 0 0 1 6 9.5z"/></g><g opacity=".3"><path fill="#2f3035" d="M6 17.5A1.5 1.5 0 0 1 7.5 16h16a1.5 1.5 0 0 1 0 3h-16A1.5 1.5 0 0 1 6 17.5z"/></g></g><g opacity=".3"><g opacity=".3"><path fill="#2f3035" d="M0 1.5a1.5 1.5 0 1 1 3 0 1.5 1.5 0 1 1-3 0z"/></g><g opacity=".3"><path fill="#2f3035" d="M0 9.5a1.5 1.5 0 1 1 3 0 1.5 1.5 0 1 1-3 0z"/></g><g opacity=".3"><path fill="#2f3035" d="M0 17.5a1.5 1.5 0 1 1 3 0 1.5 1.5 0 1 1-3 0z"/></g></g></g></g></svg>